<svg width="40" height="40" viewBox="0 0 40 40" fill="none" xmlns="http://www.w3.org/2000/svg">
<path fill-rule="evenodd" clip-rule="evenodd" d="M23.5012 4.18851C20.8053 3.9055 17.9799 4.80607 16.029 6.57015C12.1462 10.0817 11.6748 15.832 14.9439 19.8109L15.6874 20.7159L15.8668 19.5974C16.1184 18.0269 17.2942 15.8605 18.5597 14.6359C19.9904 13.251 21.4488 12.4395 23.2211 12.0422C26.2691 11.3588 29.0151 12.0178 31.6542 14.0661C31.9568 14.3009 31.9964 14.2606 32.0116 13.7039C32.0458 12.4559 31.556 10.6317 30.8028 9.20291C29.3482 6.44301 26.5281 4.50631 23.5012 4.18851ZM13.1629 7.22176C12.5546 7.26503 11.5728 7.43351 10.9812 7.59618C9.74295 7.93662 7.46274 9.32893 6.63231 10.2513C4.58145 12.5299 3.71457 15.6787 4.30639 18.6992C5.64102 25.5093 13.741 28.6309 19.43 24.5276L20.6335 23.6597L18.6197 22.9859C16.8617 22.3975 16.4365 22.1678 15.272 21.1764C13.4961 19.6649 12.4146 17.7887 11.9919 15.4862C11.7112 13.957 11.7245 13.515 12.103 11.7761C12.4747 10.0689 12.6526 9.62158 13.4176 8.46977C13.9041 7.73722 14.2947 7.13891 14.2857 7.14038C14.2764 7.1418 13.7713 7.17829 13.1629 7.22176ZM24.8704 12.8099C23.1077 12.9306 21.1846 13.6275 19.7339 14.6711L18.5466 15.5254L20.5177 16.1884C21.6019 16.5529 22.8537 17.1104 23.2993 17.427C25.7895 19.1952 27.3384 22.1522 27.3932 25.2415C27.4241 26.9947 26.5265 29.7937 25.541 31.0168C25.1549 31.4957 24.863 31.9285 24.892 31.9787C24.9687 32.1116 26.5573 31.9661 27.7079 31.721C28.9897 31.4478 31.2395 30.2285 32.1865 29.2936C36.6462 24.8912 35.7962 17.4299 30.4663 14.1926C29.0295 13.32 26.5101 12.6973 24.8704 12.8099ZM23.3157 19.5636C22.734 23.1551 19.4096 26.4808 15.723 27.1595C13.0141 27.6582 10.6196 27.1647 8.35709 25.6412C7.8111 25.2735 7.31426 25.0018 7.25286 25.0371C7.19162 25.0726 7.16055 25.4786 7.18429 25.9392C7.36291 29.4331 9.64768 32.7513 12.8987 34.238C16.5313 35.8991 21.0786 34.976 23.7795 32.029C26.1535 29.4384 26.9108 26.5338 26.111 23.0855C25.8085 21.7808 24.5967 19.511 23.8078 18.7715C23.516 18.4979 23.4786 18.558 23.3157 19.5636Z" fill="#1C1A6B"/>
</svg>
