<?xml version="1.0" standalone="no"?>
<!DOCTYPE svg PUBLIC "-//W3C//DTD SVG 20010904//EN"
 "http://www.w3.org/TR/2001/REC-SVG-20010904/DTD/svg10.dtd">
<svg version="1.0" xmlns="http://www.w3.org/2000/svg"
 width="80.000000pt" height="80.000000pt" viewBox="0 0 80.000000 80.000000"
 preserveAspectRatio="xMidYMid meet">
<metadata>
Created by potrace 1.14, written by Peter Selinger 2001-2017
</metadata>
<g transform="translate(0.000000,80.000000) scale(0.100000,-0.100000)"
fill="#000000" stroke="none">
<path d="M412 709 c-54 -11 -101 -50 -129 -107 -21 -43 -25 -61 -20 -103 7
-55 34 -109 55 -109 7 0 11 3 8 8 -8 14 21 67 57 103 62 62 158 74 234 29 l33
-19 0 26 c0 45 -39 111 -84 142 -44 30 -101 42 -154 30z"/>
<path d="M192 629 c-72 -36 -113 -109 -106 -192 13 -149 187 -223 315 -133 21
14 20 15 -20 27 -118 35 -173 178 -110 287 l18 32 -27 0 c-15 0 -46 -10 -70
-21z"/>
<path d="M455 528 c-16 -6 -40 -19 -53 -29 l-23 -18 43 -13 c116 -35 171 -179
108 -285 l-19 -33 27 0 c42 1 107 35 135 72 74 97 45 237 -61 292 -42 22 -118
29 -157 14z"/>
<path d="M471 385 c-32 -117 -182 -178 -285 -117 l-39 23 6 -41 c14 -110 134
-189 241 -159 72 20 146 109 146 173 0 43 -19 109 -40 136 l-18 24 -11 -39z"/>
</g>
</svg>
